# xmcd CD database file
#
# Track frame offsets:
#	150
#	20107
#	43045
#	67010
#	91142
#	122110
#	147382
#	167365
#	192005
#	219212
#	238200
#	261965
#
# Disc length: 3921 seconds
#
# Revision: 0
# Processed by: cddbd v1.5.2PL0 Copyright (c) Steve Scherf et al.
# Submitted via: CDex 1.51
#
DISCID=ab0f4f0c
DTITLE=Various Artist - Coleccion Salsa Discotheque
DYEAR=1996
DGENRE=Salsa
TTITLE0=Orquesta Broadway - La Isla Del Encanto
TTITLE1=Primi Cruz - Magico
TTITLE2=Puertorican Power - Ando Buscando Un Amor
TTITLE3=Limi-T 21 - Margarita
TTITLE4=Roberto Roena - El Pueblo Pide Que Toquen
TTITLE5=Cocoman - El Marciano
TTITLE6=Oro Negro - Si No Te Hubieras Ido
TTITLE7=Mimi Ibarra - Que Tiene Ella
TTITLE8=Pedro Arroyo - Yo Fui El Segundo En Tu Vida
TTITLE9=Orquesta Mulenze - A Mi Me Huele
TTITLE10=Luisito Carrion - Solo Tu
TTITLE11=Lalo Rodriguez Con Machito - Soy Salsero
EXTD=YEAR: 1996
EXTT0=
EXTT1=
EXTT2=
EXTT3=
EXTT4=
EXTT5=
EXTT6=
EXTT7=
EXTT8=
EXTT9=
EXTT10=
EXTT11=
PLAYORDER=
